<?xml version="1.0" encoding="utf-8"?>
<!-- Generator: Adobe Illustrator 16.0.0, SVG Export Plug-In . SVG Version: 6.00 Build 0)  -->
<!DOCTYPE svg PUBLIC "-//W3C//DTD SVG 1.1//EN" "http://www.w3.org/Graphics/SVG/1.1/DTD/svg11.dtd">
<svg version="1.1" xmlns="http://www.w3.org/2000/svg" xmlns:xlink="http://www.w3.org/1999/xlink" x="0px" y="0px" width="50px"
	 height="50px" viewBox="0 0 50 50" enable-background="new 0 0 50 50" xml:space="preserve">
<g id="Layer_2">
	<rect width="50" height="50" style="fill:rgb(28,29,33);"/>
</g>
<g id="Layer_1">
	<g>
		<g>
			<g id="middleCircle">
				<path fill="#00FFFF" d="M27.278,45.876c0,0.262-0.215,0.477-0.479,0.477h-0.013v0.003c-0.574,0.045-1.151,0.068-1.733,0.068
					c-11.862,0-21.479-9.616-21.479-21.478c0-4.897,1.639-9.409,4.396-13.021h0.005c0.084-0.131,0.233-0.217,0.401-0.217
					c0.167,0,0.314,0.086,0.399,0.217c0.049,0.074,0.078,0.163,0.078,0.259c0,0.098-0.03,0.192-0.083,0.268
					c-0.013,0.017-0.027,0.034-0.039,0.051c-2.637,3.452-4.203,7.763-4.203,12.443c0,11.334,9.19,20.523,20.524,20.523
					c0.572,0,1.139-0.02,1.698-0.071c0.012,0,0.022,0,0.035,0h0.013C27.063,45.397,27.278,45.61,27.278,45.876z"/>
				<path fill="#00FFFF" d="M46.531,24.946c0,2.963-0.6,5.788-1.686,8.354c-0.001,0.002-0.002,0.005-0.005,0.01
					c-0.074,0.165-0.241,0.282-0.435,0.282s-0.359-0.117-0.437-0.282c-0.024-0.06-0.041-0.126-0.041-0.197
					c0-0.063,0.013-0.123,0.033-0.178c0.004-0.007,0.008-0.015,0.01-0.022c1.034-2.45,1.605-5.14,1.605-7.966
					c0-11.335-9.189-20.524-20.524-20.524c-4.014,0-7.762,1.153-10.928,3.147c-0.012,0.01-0.025,0.017-0.039,0.025
					c-0.028,0.015-0.059,0.028-0.09,0.037c-0.044,0.013-0.089,0.02-0.137,0.02c-0.047,0-0.092-0.006-0.136-0.02
					c-0.197-0.058-0.34-0.241-0.34-0.456c0-0.159,0.075-0.299,0.191-0.385c0.019-0.013,0.037-0.026,0.057-0.037
					c3.309-2.083,7.224-3.286,11.421-3.286C36.918,3.468,46.531,13.083,46.531,24.946z"/>
			</g>
			<g id="OuterCircle">
				<path fill="#FF00FF" d="M46.337,14.248c0,0.073-0.018,0.14-0.043,0.203c-0.076,0.163-0.244,0.276-0.435,0.276
					c-0.191,0-0.358-0.113-0.434-0.276h-0.003C41.617,7.078,33.924,2.036,25.053,2.036c-12.652,0-22.91,10.258-22.91,22.91v0.028
					H2.142c-0.008,0.255-0.219,0.46-0.478,0.46c-0.257,0-0.466-0.205-0.475-0.46l0,0v-0.001c0-0.004-0.002-0.01-0.002-0.015
					c0-0.017,0.002-0.032,0.002-0.049c0.001,0,0-0.001,0-0.001C1.208,11.745,11.887,1.081,25.053,1.081
					c9.234,0,17.243,5.244,21.211,12.917c0.012,0.022,0.024,0.043,0.035,0.065c0,0.001,0.002,0.003,0.002,0.006
					C46.324,14.126,46.337,14.185,46.337,14.248z"/>
				<path fill="#FF00FF" d="M48.919,24.946c0,13.181-10.686,23.864-23.866,23.864c-6.683,0-12.724-2.749-17.059-7.174
					c-0.003-0.004-0.006-0.009-0.012-0.012c-0.083-0.086-0.133-0.201-0.133-0.331c0-0.172,0.091-0.324,0.229-0.406
					c0.073-0.045,0.158-0.069,0.25-0.069c0.09,0,0.199,0.024,0.271,0.069l0,0c4.164,4.299,9.996,6.967,16.454,6.967
					c12.653,0,22.911-10.254,22.911-22.908c0-2.124-0.288-4.179-0.828-6.13c-0.004-0.014-0.008-0.027-0.01-0.042
					c-0.009-0.067-0.008-0.134,0.01-0.197c0.044-0.179,0.19-0.319,0.384-0.352c0.246-0.042,0.477,0.115,0.539,0.352
					c0.004,0.01,0.005,0.02,0.008,0.031c0,0.003,0.001,0.006,0.001,0.01C48.623,20.632,48.919,22.755,48.919,24.946z"/>
			</g>
			<g id="InnerCircle">
				<path fill="#FFF100" d="M40.152,36.552c0,0.047-0.015,0.089-0.038,0.127c-0.009,0.013-0.021,0.026-0.032,0.043
					c-0.001,0-0.001,0-0.001,0c-3.494,4.454-8.926,7.316-15.028,7.316c-6.339,0-11.959-3.09-15.43-7.85
					c-0.025-0.037-0.041-0.086-0.041-0.133c0-0.051,0.016-0.097,0.044-0.137c0.042-0.061,0.115-0.101,0.195-0.101
					s0.151,0.04,0.193,0.101c0.002,0,0.002,0.002,0.004,0.005c3.386,4.629,8.86,7.636,15.034,7.636
					c5.952,0,11.248-2.791,14.655-7.135h0.004c0.042-0.067,0.117-0.11,0.2-0.11c0.087,0,0.161,0.043,0.202,0.11
					C40.138,36.461,40.152,36.507,40.152,36.552z"/>
				<path fill="#FFF100" d="M44.146,24.946c0,0.808-0.05,1.606-0.148,2.385h-0.001v0.008c0,0.133-0.106,0.239-0.239,0.239
					c-0.132,0-0.238-0.106-0.238-0.239v-0.008h-0.002c0.102-0.779,0.152-1.577,0.152-2.385c0-10.279-8.334-18.615-18.616-18.615
					c-0.062,0-0.124,0-0.185,0.004c-0.001,0-0.001,0-0.003,0h-0.001c-0.005,0-0.01,0-0.014-0.002
					c-0.125-0.007-0.224-0.109-0.224-0.235c0-0.128,0.099-0.23,0.224-0.238c0.005-0.002,0.01-0.002,0.016-0.002
					c0.062-0.003,0.126-0.003,0.188-0.003C35.599,5.855,44.146,14.401,44.146,24.946z"/>
				<path fill="#FFF100" d="M15.847,8.628c0,0.076-0.036,0.143-0.091,0.186c-0.004,0.004-0.01,0.008-0.014,0.011
					c-5.563,3.219-9.304,9.234-9.304,16.121c0,0.435,0.015,0.866,0.046,1.292v0.007c0,0.133-0.108,0.239-0.24,0.239
					c-0.131,0-0.239-0.106-0.239-0.239v-0.007c-0.028-0.426-0.044-0.857-0.044-1.292c0-7.053,3.824-13.213,9.514-16.517
					c0.001-0.002,0.005-0.003,0.009-0.005c0.008-0.005,0.018-0.01,0.028-0.016c0.029-0.013,0.063-0.02,0.096-0.02
					c0.056,0,0.108,0.019,0.148,0.053C15.812,8.483,15.847,8.552,15.847,8.628z"/>
			</g>
		</g>
		<g>
			<g>
				<path fill="#FFFFFF" d="M34.215,32.02c-0.596,0-1.131-0.334-1.396-0.872L24.626,14.3L16.547,31.14l-0.056,0.103
					c-0.275,0.479-0.792,0.777-1.348,0.777c-0.859,0-1.558-0.698-1.558-1.556c0-0.194,0.036-0.386,0.108-0.568l0.069-0.153
					l9.448-19.696c0.152-0.316,0.409-0.574,0.725-0.726c0.209-0.103,0.444-0.157,0.681-0.157c0.214,0,0.42,0.042,0.612,0.127
					c0.339,0.143,0.618,0.407,0.782,0.743l9.664,19.863l-0.009,0.004c0.07,0.179,0.105,0.368,0.105,0.564
					C35.771,31.321,35.072,32.02,34.215,32.02z"/>
				<path fill="#00EBFF" d="M24.616,9.288c0.198,0,0.388,0.04,0.562,0.116c0.316,0.133,0.57,0.377,0.72,0.684l0.011,0.021
					l0.157,0.321l0.14,0.287l9.302,19.123l-0.004,0.002c0.092,0.188,0.143,0.398,0.143,0.623c0,0.788-0.643,1.431-1.431,1.431
					c-0.565,0-1.05-0.327-1.284-0.803l-0.046-0.093l-0.001-0.004l-8.259-16.982l-8.19,17.073c-0.015,0.029-0.031,0.06-0.05,0.091
					c-0.247,0.43-0.71,0.718-1.241,0.718c-0.792,0-1.433-0.643-1.433-1.431c0-0.184,0.036-0.36,0.099-0.522
					c0.003-0.011,0.008-0.024,0.014-0.035l0.01-0.022l0.039-0.082l0.012-0.021l9.14-19.056l0.17-0.355l0.129-0.27
					c0.14-0.292,0.376-0.527,0.666-0.667C24.178,9.34,24.392,9.288,24.616,9.288 M24.616,9.038c-0.255,0-0.51,0.059-0.737,0.17
					c-0.339,0.164-0.617,0.442-0.781,0.783l-0.129,0.27l-0.17,0.354l-9.14,19.056l-0.051,0.104
					c-0.017,0.034-0.028,0.064-0.036,0.089c-0.072,0.183-0.111,0.389-0.111,0.599c0,0.927,0.755,1.681,1.683,1.681
					c0.601,0,1.159-0.323,1.458-0.844c0.019-0.03,0.038-0.065,0.055-0.101l7.97-16.613l8.021,16.494v0.001l0.014,0.028l0.046,0.093
					c0.286,0.58,0.864,0.941,1.508,0.941c0.927,0,1.681-0.754,1.681-1.681c0-0.173-0.025-0.341-0.076-0.502l0.017-0.008
					l-0.104-0.225L26.43,10.607l-0.14-0.287l-0.156-0.321c-0.189-0.385-0.49-0.67-0.859-0.825
					C25.071,9.084,24.848,9.038,24.616,9.038L24.616,9.038z"/>
			</g>
			<g>
				<path fill="#FFFFFF" d="M23.17,39.154c-1.122,0-2.035-0.913-2.035-2.036c0-1.121,0.913-2.033,2.035-2.033h0.125v0.018
					c0.277,0.057,0.483,0.299,0.483,0.589c0,0.322-0.262,0.592-0.583,0.601c-0.49,0.006-0.855,0.377-0.855,0.826
					c0,0.458,0.373,0.831,0.83,0.831c0.457,0,0.829-0.373,0.829-0.831V25.176c0-0.332,0.27-0.602,0.602-0.602
					c0.333,0,0.604,0.27,0.604,0.602v11.942C25.204,38.241,24.292,39.154,23.17,39.154z"/>
				<path fill="#00EBFF" d="M24.601,24.7c0.265,0,0.479,0.214,0.479,0.477v11.942c0,1.055-0.855,1.911-1.909,1.911
					c-1.054,0-1.91-0.856-1.91-1.911c0-1.053,0.855-1.908,1.91-1.908v0.005h0.006c0.263,0,0.477,0.21,0.477,0.477
					c0,0.258-0.206,0.469-0.461,0.476c-0.007-0.002-0.016-0.002-0.021-0.002s-0.012,0-0.018,0.002
					c-0.519,0.007-0.938,0.431-0.938,0.951c0,0.528,0.428,0.956,0.955,0.956c0.526,0,0.954-0.428,0.954-0.956V25.176
					C24.124,24.914,24.338,24.7,24.601,24.7 M24.601,24.45c-0.401,0-0.727,0.326-0.727,0.727v10.311
					c-0.065-0.224-0.236-0.402-0.454-0.48v-0.042l-0.25-0.005c-1.191,0-2.16,0.968-2.16,2.158c0,1.191,0.969,2.161,2.16,2.161
					c1.19,0,2.159-0.97,2.159-2.161V25.176C25.329,24.776,25.002,24.45,24.601,24.45L24.601,24.45z M23.206,36.413
					c0.325-0.021,0.583-0.236,0.667-0.52v1.225c0,0.39-0.315,0.706-0.704,0.706c-0.389,0-0.705-0.316-0.705-0.706
					c0-0.382,0.31-0.696,0.691-0.701l0.042-0.001L23.206,36.413L23.206,36.413z"/>
			</g>
			<g>
				<path fill="#FFFFFF" d="M25.827,26.521c-0.332,0-0.602-0.271-0.602-0.603c0-0.076,0.015-0.151,0.043-0.222l-0.02-0.017
					l0.075-0.097c0.099-0.163,0.137-0.305,0.137-0.452c0-0.457-0.373-0.829-0.831-0.829c-0.458,0-0.83,0.372-0.83,0.829
					c0,0.136,0.033,0.269,0.095,0.384c0.057,0.109,0.079,0.203,0.079,0.297c0,0.333-0.271,0.604-0.603,0.604
					c-0.221,0-0.424-0.121-0.529-0.316c-0.171-0.332-0.247-0.643-0.247-0.969c0-1.122,0.913-2.034,2.035-2.034
					s2.035,0.913,2.035,2.034c0,0.375-0.104,0.743-0.3,1.063l-0.073,0.108C26.175,26.441,26.006,26.521,25.827,26.521z"/>
				<path fill="#00EBFF" d="M24.629,23.222c1.054,0,1.91,0.855,1.91,1.909c0,0.367-0.103,0.706-0.281,0.997
					c-0.003,0.002-0.004,0.006-0.007,0.007c-0.002,0.007-0.007,0.014-0.012,0.023c-0.005,0.007-0.01,0.014-0.016,0.021
					c0,0.001-0.001,0.005-0.001,0.006c-0.009,0.015-0.018,0.025-0.027,0.037c-0.089,0.106-0.219,0.175-0.368,0.175
					c-0.263,0-0.477-0.215-0.477-0.478c0-0.092,0.026-0.178,0.073-0.253l-0.004-0.003c0.015-0.018,0.027-0.037,0.039-0.057
					c0.082-0.139,0.127-0.303,0.127-0.475c0-0.526-0.428-0.954-0.956-0.954s-0.955,0.428-0.955,0.954
					c0,0.159,0.039,0.311,0.11,0.443c0.002,0.003,0.003,0.005,0.004,0.007c0.002,0.005,0.005,0.011,0.008,0.016
					c0.032,0.064,0.051,0.138,0.051,0.215c0,0.265-0.214,0.479-0.478,0.479c-0.18,0-0.338-0.102-0.419-0.251
					c-0.004-0.006-0.007-0.014-0.01-0.021c-0.003-0.007-0.007-0.013-0.011-0.021c-0.135-0.261-0.211-0.555-0.211-0.868
					C22.719,24.077,23.576,23.222,24.629,23.222 M24.629,22.972c-1.191,0-2.16,0.969-2.16,2.159c0,0.346,0.081,0.676,0.239,0.983
					l0.006,0.012l0.028,0.053c0.115,0.216,0.36,0.362,0.627,0.362c0.401,0,0.728-0.327,0.728-0.729c0-0.114-0.027-0.227-0.078-0.328
					c-0.068-0.126-0.096-0.239-0.096-0.354c0-0.388,0.316-0.704,0.705-0.704c0.389,0,0.706,0.316,0.706,0.704
					c0,0.125-0.032,0.245-0.092,0.348l-0.158,0.188l0.044,0.048c-0.02,0.066-0.029,0.135-0.029,0.204
					c0,0.401,0.326,0.728,0.727,0.728c0.216,0,0.42-0.097,0.561-0.265l0.012-0.015l0.038-0.054l0.004-0.008h0.001l0.028-0.047
					c0.208-0.34,0.318-0.729,0.318-1.128C26.789,23.94,25.82,22.972,24.629,22.972L24.629,22.972z"/>
			</g>
		</g>
	</g>
</g>
</svg>
